HIERARCHY
ROOT Hips
{
 OFFSET 0.000000 0.000000 0.000000
 CHANNELS 6 Xposition Yposition Zposition Yrotation Xrotation Zrotation
 JOINT Chest
 {
  OFFSET 0.000000 9.585900 0.002600
  CHANNELS 3 Yrotation Xrotation Zrotation
  JOINT Chest2
  {
   OFFSET 0.000000 9.601200 -0.005300
   CHANNELS 3 Yrotation Xrotation Zrotation
   JOINT Chest3
   {
    OFFSET 0.000000 9.561800 0.000000
    CHANNELS 3 Yrotation Xrotation Zrotation
    JOINT Chest4
    {
     OFFSET 0.000000 9.552100 0.000000
     CHANNELS 3 Yrotation Xrotation Zrotation
     JOINT Neck
     {
      OFFSET 0.000000 14.453000 0.000000
      CHANNELS 3 Yrotation Xrotation Zrotation
      JOINT Head
      {
       OFFSET 0.000000 8.936500 -0.011300
       CHANNELS 3 Yrotation Xrotation Zrotation
       End Site
       {
        OFFSET 0.000000 17.073600 -0.006000
       }
      }
     }
     JOINT RightCollar
     {
      OFFSET -2.921100 9.558500 0.000000
      CHANNELS 3 Yrotation Xrotation Zrotation
      JOINT RightShoulder
      {
       OFFSET -13.519700 0.000000 0.000000
       CHANNELS 3 Yrotation Xrotation Zrotation
       JOINT RightElbow
       {
        OFFSET 0.000000 -29.696600 0.000000
        CHANNELS 3 Yrotation Xrotation Zrotation
        JOINT RightWrist
        {
         OFFSET 0.000000 -24.004700 0.000000
         CHANNELS 3 Yrotation Xrotation Zrotation
         End Site
         {
          OFFSET 0.000000 -17.728500 0.000000
         }
        }
       }
      }
     }
     JOINT LeftCollar
     {
      OFFSET 2.921100 9.558500 0.000000
      CHANNELS 3 Yrotation Xrotation Zrotation
      JOINT LeftShoulder
      {
       OFFSET 13.519700 0.000000 0.000000
       CHANNELS 3 Yrotation Xrotation Zrotation
       JOINT LeftElbow
       {
        OFFSET 0.000000 -29.696600 0.000000
        CHANNELS 3 Yrotation Xrotation Zrotation
        JOINT LeftWrist
        {
         OFFSET 0.000000 -24.004700 0.000000
         CHANNELS 3 Yrotation Xrotation Zrotation
         End Site
         {
          OFFSET 0.000000 -17.728500 0.000000
         }
        }
       }
      }
     }
    }
   }
  }
 }
 JOINT RightHip
 {
  OFFSET -7.771700 -0.012900 -0.001300
  CHANNELS 3 Yrotation Xrotation Zrotation
  JOINT RightKnee
  {
   OFFSET 0.000000 -40.869800 0.001200
   CHANNELS 3 Yrotation Xrotation Zrotation
   JOINT RightAnkle
   {
    OFFSET 0.000000 -39.717900 0.002100
    CHANNELS 3 Yrotation Xrotation Zrotation
    JOINT RightToe
    {
     OFFSET 0.000000 -4.965400 11.033500
     CHANNELS 3 Yrotation Xrotation Zrotation
     End Site
     {
      OFFSET 0.000000 -1.423100 5.872300
     }
    }
   }
  }
 }
 JOINT LeftHip
 {
  OFFSET 7.771700 -0.012900 -0.001300
  CHANNELS 3 Yrotation Xrotation Zrotation
  JOINT LeftKnee
  {
   OFFSET 0.000000 -40.869800 0.001200
   CHANNELS 3 Yrotation Xrotation Zrotation
   JOINT LeftAnkle
   {
    OFFSET 0.000000 -39.717900 0.002100
    CHANNELS 3 Yrotation Xrotation Zrotation
    JOINT LeftToe
    {
     OFFSET 0.000000 -4.965400 11.033500
     CHANNELS 3 Yrotation Xrotation Zrotation
     End Site
     {
      OFFSET 0.000000 -1.423100 5.872300
     }
    }
   }
  }
 }
}
MOTION
Frames: 6
Frame Time: 0.008333
-51.734997 47.045150 7.226874 -179.403056 -30.790567 -3.618688 -0.250785 18.811591 2.136055 -0.139551 2.230591 0.240693 -0.207993 3.684545 0.408459 -0.738557 16.438959 1.756514 -3.583663 19.710650 1.098177 -6.871524 0.948213 3.089810 0.288925 1.502559 -1.511394 2.614844 -5.590290 -15.463928 -52.542308 -59.491803 99.114552 -2.459517 2.165471 -19.746006 0.950169 -0.470480 2.309636 -3.581544 -3.247456 13.723253 67.445365 -67.597924 -107.030541 -0.468346 13.660484 12.187472 3.968610 -56.687880 -2.278552 143.733798 78.672742 152.565457 -9.089835 -21.262155 -4.443042 0.492970 -0.136341 -0.452089 -0.479614 -57.571198 8.600189 -95.859617 82.129517 -101.273165 5.130185 -4.644113 6.085163 -0.269219 0.226187 -0.022835
-51.759749 47.027014 7.236466 -179.467195 -30.777943 -3.615080 -0.197822 18.793376 2.155464 -0.168481 2.219449 0.211589 -0.184336 3.688514 0.424939 -0.728677 16.434559 1.748716 -3.545051 19.577835 1.015217 -6.752043 0.726645 2.975884 0.278238 1.398194 -1.578807 2.697374 -5.434503 -15.422068 -52.229364 -59.451312 98.871804 -2.392072 2.453184 -19.588984 0.961150 -0.480110 2.293422 -3.649612 -3.289493 13.732602 67.471860 -67.644189 -107.078308 -0.507956 13.697683 12.197036 3.669789 -56.714973 -2.371429 145.180378 78.822700 154.038833 -8.967138 -21.233543 -4.456137 0.392705 -0.199663 -0.420983 -0.405896 -57.607323 8.636414 -96.050044 82.099812 -101.466367 5.037205 -4.638261 6.066450 -0.173601 0.221320 0.011999
-51.795553 47.008906 7.243531 -179.549690 -30.786707 -3.590134 -0.163759 18.787465 2.126505 -0.166100 2.220293 0.205316 -0.187037 3.676554 0.410003 -0.698904 16.420798 1.726598 -3.473261 19.472968 0.970805 -6.627847 0.508846 2.859628 0.297685 1.390933 -1.545076 2.766135 -5.366185 -15.448038 -51.919575 -59.405649 98.639246 -2.315029 2.720881 -19.394550 0.981821 -0.469695 2.321383 -3.707405 -3.323525 13.736277 67.461306 -67.679290 -107.065643 -0.524246 13.734297 12.200639 3.431790 -56.714555 -2.533272 147.296495 79.014558 156.203197 -8.853341 -21.201740 -4.482242 0.292185 -0.274001 -0.370744 -0.275527 -57.625428 8.645135 -96.313383 82.071455 -101.748011 4.941070 -4.654510 6.098969 -0.095622 0.227328 0.025897
-51.848810 46.990310 7.247978 -179.608466 -30.809781 -3.531916 -0.206905 18.802767 1.994532 -0.118075 2.220580 0.239876 -0.190077 3.664405 0.393640 -0.666981 16.404318 1.704135 -3.400461 19.369802 0.926506 -6.499336 0.294699 2.740310 0.318356 1.413029 -1.485519 2.797585 -5.343703 -15.468659 -51.566703 -59.397719 98.394556 -2.227572 2.972068 -19.187668 1.009321 -0.461063 2.351522 -3.738922 -3.317368 13.760731 67.458415 -67.691955 -107.063541 -0.568472 13.732981 12.155370 3.256485 -56.686435 -2.815918 150.158714 79.234598 159.131654 -8.711279 -21.204021 -4.529086 0.169625 -0.325558 -0.312817 -0.142810 -57.616043 8.578926 -96.496650 82.074391 -101.975407 4.872003 -4.672836 6.114774 -0.050204 0.235585 0.051345
-51.905585 46.971249 7.251278 -179.676237 -30.836350 -3.510985 -0.173461 18.828693 1.963112 -0.114688 2.214692 0.236296 -0.181376 3.658570 0.398673 -0.650023 16.393085 1.689061 -3.344034 19.251429 0.850933 -6.369252 0.086147 2.619266 0.317297 1.379423 -1.484680 2.863677 -5.299329 -15.516101 -51.298672 -59.356831 98.221215 -2.132900 3.206458 -18.990802 1.017274 -0.467620 2.354515 -3.760373 -3.309528 13.785086 67.551161 -67.696602 -107.190529 -0.599770 13.752531 12.135915 3.024608 -56.644243 -3.087050 153.016501 79.405264 162.013303 -8.217939 -21.203404 -4.657478 0.095876 -0.358837 -0.227945 -0.067303 -57.603994 8.588225 -96.717237 82.079460 -102.237968 4.796358 -4.702567 6.126158 -0.005755 0.251842 0.079192
-51.959681 46.950250 7.256725 -179.746252 -30.839506 -3.569641 -0.099944 18.834864 2.023065 -0.111554 2.207790 0.232375 -0.169348 3.656772 0.424520 -0.644769 16.389128 1.683684 -3.301549 19.117787 0.740041 -6.242776 -0.116714 2.497583 0.286506 1.299589 -1.547844 2.933555 -5.244243 -15.539722 -51.041735 -59.324463 98.081109 -2.038116 3.418689 -18.820891 1.016654 -0.487500 2.321084 -3.795973 -3.319753 13.795566 67.577470 -67.695399 -107.240441 -0.603716 13.760688 12.149020 2.677401 -56.605333 -3.324147 156.110874 79.542056 165.067731 -7.071337 -21.195776 -4.903573 0.092334 -0.366948 -0.125012 0.028156 -57.634814 8.653123 -97.017120 82.043271 -102.498531 4.672165 -4.732520 6.121930 0.099341 0.277214 0.126392
